HIERARCHY
ROOT hip
{
	OFFSET 0.000000 0.000000 0.000000
	CHANNELS 6 Xposition Yposition Zposition Zrotation Yrotation Xrotation 
	JOINT lhipjoint
	{
		OFFSET 0.000000 0.000000 0.000000
		CHANNELS 3 Zrotation Yrotation Xrotation
		JOINT lfemur
		{
			OFFSET 1.363060 -1.794630 0.839290
			CHANNELS 3 Zrotation Yrotation Xrotation
			JOINT ltibia
			{
				OFFSET 2.448110 -6.726130 0.000000
				CHANNELS 3 Zrotation Yrotation Xrotation
				JOINT lfoot
				{
					OFFSET 2.562200 -7.039590 0.000000
					CHANNELS 3 Zrotation Yrotation Xrotation
					JOINT ltoes
					{
						OFFSET 0.157640 -0.433110 2.322550
						CHANNELS 3 Zrotation Yrotation Xrotation
						End Site
						{
							OFFSET 0.000000 0.000000 0.000000
						}
					}
				}
			}
		}
	}
	JOINT rhipjoint
	{
		OFFSET 0.000000 0.000000 0.000000
		CHANNELS 3 Zrotation Yrotation Xrotation
		JOINT rfemur
		{
			OFFSET -1.305520 -1.794630 0.839290
			CHANNELS 3 Zrotation Yrotation Xrotation
			JOINT rtibia
			{
				OFFSET -2.542530 -6.985550 0.000000
				CHANNELS 3 Zrotation Yrotation Xrotation
				JOINT rfoot
				{
					OFFSET -2.568260 -7.056230 0.000000
					CHANNELS 3 Zrotation Yrotation Xrotation
					JOINT rtoes
					{
						OFFSET -0.164730 -0.452590 2.363150
						CHANNELS 3 Zrotation Yrotation Xrotation
						End Site
						{
							OFFSET 0.000000 0.000000 0.000000
						}
					}
				}
			}
		}
	}
	JOINT lowerback
	{
		OFFSET 0.000000 0.000000 0.000000
		CHANNELS 3 Zrotation Yrotation Xrotation
		JOINT upperback
		{
			OFFSET 0.028270 2.035590 -0.193380
			CHANNELS 3 Zrotation Yrotation Xrotation
			JOINT thorax
			{
				OFFSET 0.056720 2.048850 -0.042750
				CHANNELS 3 Zrotation Yrotation Xrotation
				JOINT lowerneck
				{
					OFFSET 0.000000 0.000000 0.000000
					CHANNELS 3 Zrotation Yrotation Xrotation
					JOINT upperneck
					{
						OFFSET -0.054170 1.746240 0.172020
						CHANNELS 3 Zrotation Yrotation Xrotation
						JOINT head
						{
							OFFSET 0.104070 1.761360 -0.123970
							CHANNELS 3 Zrotation Yrotation Xrotation
							End Site
							{
								OFFSET 0.000000 0.000000 0.000000
							}
						}
					}
				}
				JOINT lclavicle
				{
					OFFSET 0.000000 0.000000 0.000000
					CHANNELS 3 Zrotation Yrotation Xrotation
					JOINT lhumerus
					{
						OFFSET 3.362410 1.200890 -0.311210
						CHANNELS 3 Zrotation Yrotation Xrotation
						JOINT lradius
						{
							OFFSET 4.983000 -0.000000 -0.000000
							CHANNELS 3 Zrotation Yrotation Xrotation
							JOINT lwrist
							{
								OFFSET 3.483560 -0.000000 -0.000000
								CHANNELS 3 Zrotation Yrotation Xrotation
								JOINT lhand
								{
									OFFSET 0.000000 0.000000 0.000000
									CHANNELS 3 Zrotation Yrotation Xrotation
									JOINT lfingers
									{
										OFFSET 0.715260 -0.000000 -0.000000
										CHANNELS 3 Zrotation Yrotation Xrotation
										End Site
										{
											OFFSET 0.000000 0.000000 0.000000
										}
									}
								}
								JOINT lthumb
								{
									OFFSET 0.000000 0.000000 0.000000
									CHANNELS 3 Zrotation Yrotation Xrotation
									End Site
									{
										OFFSET 0.000000 0.000000 0.000000
									}
								}
							}
						}
					}
				}
				JOINT rclavicle
				{
					OFFSET 0.000000 0.000000 0.000000
					CHANNELS 3 Zrotation Yrotation Xrotation
					JOINT rhumerus
					{
						OFFSET -3.136600 1.374050 -0.404650
						CHANNELS 3 Zrotation Yrotation Xrotation
						JOINT rradius
						{
							OFFSET -5.241900 -0.000000 -0.000000
							CHANNELS 3 Zrotation Yrotation Xrotation
							JOINT rwrist
							{
								OFFSET -3.444170 -0.000000 -0.000000
								CHANNELS 3 Zrotation Yrotation Xrotation
								JOINT rhand
								{
									OFFSET 0.000000 0.000000 0.000000
									CHANNELS 3 Zrotation Yrotation Xrotation
									JOINT rfingers
									{
										OFFSET -0.622530 -0.000000 -0.000000
										CHANNELS 3 Zrotation Yrotation Xrotation
										End Site
										{
											OFFSET 0.000000 0.000000 0.000000
										}
									}
								}
								JOINT rthumb
								{
									OFFSET 0.000000 0.000000 0.000000
									CHANNELS 3 Zrotation Yrotation Xrotation
									End Site
									{
										OFFSET 0.000000 0.000000 0.000000
									}
								}
							}
						}
					}
				}
			}
		}
	}
}
MOTION
Frames: 9
Frame Time: 0.008333
-0.163195 12.297334 1.467660 171.542679 -9.126360 -174.306031 7.064404 2.878082 0.343600 -19.067368 -21.563634 -72.289092 26.264499 22.394851 105.625680 7.845762 -21.470572 -4.179479 0.014200 -0.769000 -2.113300 -7.458152 -5.016471 4.068128 -1.790420 12.271926 -79.256183 -28.441864 -21.484859 113.281240 -2.748146 2.217859 -11.842872 -1.152700 6.816800 -19.173600 21.651005 -8.330036 81.240627 0.450601 -2.280293 -1.273651 -7.348561 -2.609210 -6.643926 -1.175453 -9.051567 2.671518 1.997875 -12.224790 10.692589 1.248500 -6.128800 1.591500 -3.845124 -4.122507 4.326744 -73.639983 -0.334427 46.098928 40.062264 -55.062941 -14.626119 -0.326444 2.838947 -11.067688 10.965994 -6.046591 -1.696600 -7.125000 0.000000 0.000000 -11.577000 20.938600 6.813200 3.813678 6.374908 0.529025 15.854356 42.235903 -33.186493 2.755979 10.676871 -1.244904 -0.878045 -0.618311 25.068503 -43.508247 12.384172 -12.501000 7.125000 0.000000 0.000000 -10.341500 -11.699900 -8.167000 
-0.170260 12.251261 1.457908 171.494109 -9.157637 -174.378110 7.040960 2.887740 0.356688 -19.063464 -21.499246 -72.518262 26.439614 22.349086 106.107371 7.880774 -21.648406 -4.184625 0.011300 -0.685700 -1.884400 -7.408174 -5.019203 4.092056 -1.989770 12.095112 -79.541636 -28.625678 -21.417700 113.807266 -2.760839 2.234435 -11.833837 -1.168900 6.862800 -19.309500 21.639903 -8.362618 81.202202 0.455639 -2.309723 -1.279054 -7.306157 -2.635230 -6.664942 -1.184350 -9.043427 2.662220 1.992073 -12.228335 10.730472 1.234600 -6.132900 1.628100 -3.833594 -4.133094 4.321032 -73.637676 -0.283307 46.162141 39.999022 -55.039512 -14.584524 -0.313191 2.839656 -11.120865 10.955974 -6.181818 -1.717500 -7.125000 0.000000 0.000000 -11.587800 20.806500 6.855200 3.802234 6.375377 0.518298 15.940258 42.218705 -33.103179 2.825409 10.582184 -1.257340 -0.894111 -0.595176 25.399116 -44.184812 12.512933 -12.902100 7.125000 0.000000 0.000000 -10.734100 -11.357600 -8.565500 
-0.177027 12.208373 1.449549 171.447422 -9.165957 -174.480769 7.021880 2.897931 0.369642 -19.083051 -21.411442 -72.698357 26.609654 22.303275 106.571759 7.912929 -21.790391 -4.217779 0.009600 -0.631200 -1.734400 -7.366617 -5.021856 4.114610 -2.181355 11.958083 -79.781679 -28.800018 -21.350511 114.309201 -2.770833 2.245459 -11.820762 -1.189400 6.920800 -19.481100 21.598410 -8.375685 81.209994 0.461042 -2.333531 -1.287131 -7.250631 -2.665330 -6.688640 -1.179413 -9.030351 2.622670 1.970556 -12.230199 10.775221 1.196000 -6.134900 1.677300 -3.813135 -4.149271 4.311660 -73.653527 -0.212107 46.168753 39.949946 -55.020630 -14.550471 -0.306943 2.838762 -11.103167 10.910882 -6.231770 -1.718100 -7.125000 0.000000 0.000000 -11.620700 20.761100 6.887700 3.792360 6.378872 0.497719 16.021857 42.217398 -33.019613 2.911087 10.463674 -1.268754 -0.911043 -0.567860 25.742989 -44.929783 12.641181 -13.341600 7.125000 0.000000 0.000000 -11.165700 -10.992600 -9.008900 
-0.184888 12.166479 1.440693 171.397310 -9.198139 -174.555909 7.000425 2.905469 0.381815 -19.106970 -21.344936 -72.885571 26.767582 22.259233 107.008662 7.940129 -21.922411 -4.224101 0.007200 -0.548800 -1.508000 -7.317555 -5.023528 4.136775 -2.380124 11.768945 -80.033276 -28.966556 -21.287274 114.787576 -2.789116 2.278023 -11.808673 -1.201200 6.953800 -19.578700 21.588291 -8.410837 81.170383 0.465190 -2.370600 -1.292972 -7.229748 -2.690924 -6.695395 -1.149300 -9.030962 2.564625 1.941736 -12.247440 10.811392 1.148700 -6.142800 1.722800 -3.794450 -4.158200 4.302021 -73.671463 -0.164967 46.183460 39.844225 -54.968766 -14.483981 -0.299325 2.833150 -11.096107 10.828634 -6.291637 -1.713200 -7.125000 0.000000 0.000000 -11.680800 20.712600 6.937900 3.783541 6.379899 0.480079 16.149064 42.215042 -32.894541 2.962154 10.396695 -1.288311 -0.929358 -0.548798 26.038979 -45.597363 12.756796 -13.755200 7.125000 0.000000 0.000000 -11.546800 -10.644600 -9.413500 
-0.192849 12.127969 1.432533 171.336657 -9.202073 -174.596812 6.979489 2.914264 0.391396 -19.130376 -21.292271 -73.098945 26.916785 22.215949 107.420324 7.966524 -22.033716 -4.254271 0.005900 -0.494500 -1.358900 -7.272214 -5.025779 4.154961 -2.608223 11.632874 -80.301539 -29.118347 -21.226213 115.229188 -2.803564 2.306728 -11.765262 -1.214700 6.991300 -19.689700 21.544797 -8.395747 81.102354 0.471196 -2.387429 -1.294115 -7.162883 -2.711793 -6.669007 -1.162395 -9.026858 2.463586 1.918698 -12.260709 10.849554 1.113400 -6.150000 1.786200 -3.771437 -4.159439 4.290742 -73.711891 -0.184426 46.220205 39.680442 -54.894913 -14.383736 -0.293632 2.832307 -11.131195 10.777521 -6.345873 -1.713100 -7.125000 0.000000 0.000000 -11.719300 20.663300 6.975100 3.773773 6.366616 0.469748 16.236850 42.198779 -32.813701 2.991920 10.349031 -1.305126 -0.943515 -0.524981 26.345322 -46.298852 12.888861 -14.205400 7.125000 0.000000 0.000000 -11.944900 -10.265600 -9.847100 
-0.200411 12.091848 1.424473 171.307713 -9.221203 -174.654275 6.961401 2.921132 0.399216 -19.135286 -21.235885 -73.269325 27.054958 22.175334 107.802999 7.991095 -22.151590 -4.264805 0.005100 -0.461500 -1.268100 -7.231710 -5.027624 4.171925 -2.770900 11.490526 -80.529781 -29.259312 -21.169363 115.641439 -2.799963 2.288740 -11.734731 -1.231900 7.038800 -19.830300 21.537698 -8.394740 81.030713 0.475928 -2.398106 -1.293905 -7.127016 -2.724353 -6.623258 -1.138971 -9.030196 2.332282 1.895563 -12.286182 10.897393 1.066100 -6.161500 1.863100 -3.750511 -4.155941 4.277811 -73.728827 -0.238295 46.246482 39.486694 -54.796170 -14.265319 -0.286413 2.821868 -11.077252 10.649443 -6.383108 -1.695700 -7.125000 0.000000 0.000000 -11.810800 20.644100 7.037100 3.769383 6.352165 0.456855 16.307764 42.175543 -32.778411 3.037138 10.282217 -1.317835 -0.955601 -0.501235 26.656453 -46.938892 13.000894 -14.617100 7.125000 0.000000 0.000000 -12.307500 -9.925900 -10.247400 
-0.208770 12.057617 1.417109 171.224884 -9.240059 -174.701037 6.941896 2.924311 0.406503 -19.209735 -21.196624 -73.428875 27.184204 22.135729 108.160447 8.011163 -22.218119 -4.304438 0.004500 -0.432500 -1.188300 -7.185947 -5.030531 4.189276 -3.007477 11.316798 -80.759722 -29.396267 -21.113800 116.040384 -2.821395 2.336248 -11.690984 -1.245000 7.074800 -19.937300 21.533567 -8.402671 80.941884 0.477779 -2.433683 -1.292123 -7.124171 -2.736881 -6.577192 -1.127715 -9.043122 2.212265 1.886227 -12.320031 10.932294 1.042500 -6.178000 1.936200 -3.744750 -4.150065 4.267140 -73.721345 -0.299094 46.331164 39.268679 -54.680365 -14.135043 -0.281256 2.811217 -11.092036 10.561487 -6.415276 -1.683900 -7.125000 0.000000 0.000000 -11.875000 20.628200 7.081400 3.759463 6.339616 0.444573 16.393651 42.142526 -32.749026 3.091344 10.207898 -1.332945 -0.967739 -0.478630 26.968710 -47.635022 13.066583 -15.025500 7.125000 0.000000 0.000000 -12.712100 -9.619500 -10.682600 
-0.217129 12.027067 1.410044 171.199252 -9.241478 -174.761754 6.929047 2.929447 0.411100 -19.231541 -21.138741 -73.558696 27.299140 22.100874 108.479844 8.031346 -22.315533 -4.312309 0.003400 -0.376400 -1.034200 -7.156493 -5.033268 4.201826 -3.148688 11.224851 -80.932445 -29.511745 -21.064160 116.382219 -2.808054 2.293542 -11.674477 -1.262300 7.122000 -20.077300 21.529265 -8.389541 80.862413 0.481550 -2.442123 -1.289073 -7.101890 -2.745732 -6.513885 -1.091765 -9.054645 2.070538 1.844475 -12.352825 10.973907 0.980900 -6.191700 2.003600 -3.721213 -4.137381 4.254537 -73.741361 -0.387575 46.382232 39.007613 -54.547592 -13.983252 -0.272880 2.803190 -11.082293 10.473929 -6.477330 -1.677400 -7.125000 0.000000 0.000000 -11.938600 20.580400 7.134200 3.756680 6.319584 0.437666 16.501133 42.115247 -32.677168 3.108149 10.179515 -1.351057 -0.980082 -0.460131 27.322355 -48.235610 13.097404 -15.365300 7.125000 0.000000 0.000000 -13.063600 -9.377300 -11.059700 
-0.225587 11.999105 1.403775 171.116596 -9.266586 -174.810592 6.915364 2.931971 0.415903 -19.318660 -21.136201 -73.648247 27.397856 22.070264 108.757206 8.046212 -22.382575 -4.317251 0.002500 -0.320400 -0.880400 -7.114958 -5.033430 4.215161 -3.369805 11.050170 -81.122924 -29.629238 -21.015022 116.728307 -2.819350 2.318534 -11.622653 -1.280900 7.172300 -20.226800 21.516628 -8.384948 80.773606 0.485730 -2.465502 -1.286458 -7.070023 -2.758122 -6.445892 -1.086628 -9.070226 1.900654 1.822475 -12.394732 11.014908 0.940800 -6.211500 2.095300 -3.706601 -4.130484 4.239717 -73.753103 -0.486805 46.453794 38.779123 -54.426532 -13.843780 -0.271424 2.791807 -11.082982 10.350803 -6.466853 -1.652700 -7.125000 0.000000 0.000000 -12.027000 20.608400 7.181700 3.751419 6.301410 0.425396 16.545088 42.078692 -32.689924 3.148566 10.109995 -1.360162 -0.987528 -0.439636 27.653123 -48.817114 13.066403 -15.634000 7.125000 0.000000 0.000000 -13.419700 -9.230000 -11.419700 
